<?xml version="1.0" encoding="UTF-8" standalone="no"?>
<!-- Created with Inkscape (http://www.inkscape.org/) -->

<svg
   xmlns:dc="http://purl.org/dc/elements/1.1/"
   xmlns:cc="http://creativecommons.org/ns#"
   xmlns:rdf="http://www.w3.org/1999/02/22-rdf-syntax-ns#"
   xmlns:svg="http://www.w3.org/2000/svg"
   xmlns="http://www.w3.org/2000/svg"
   xmlns:xlink="http://www.w3.org/1999/xlink"
   xmlns:sodipodi="http://sodipodi.sourceforge.net/DTD/sodipodi-0.dtd"
   xmlns:inkscape="http://www.inkscape.org/namespaces/inkscape"
   width="500"
   height="500"
   id="svg2"
   version="1.1"
   inkscape:version="0.48.2 r9819"
   sodipodi:docname="mesh.svg">
  <sodipodi:namedview
     id="base"
     pagecolor="#ffffff"
     bordercolor="#666666"
     borderopacity="1.0"
     inkscape:pageopacity="0.0"
     inkscape:pageshadow="2"
     inkscape:zoom="1.9378108"
     inkscape:cx="186.25153"
     inkscape:cy="260.32091"
     inkscape:document-units="px"
     inkscape:current-layer="layer1"
     showgrid="true"
     inkscape:window-width="1680"
     inkscape:window-height="998"
     inkscape:window-x="-8"
     inkscape:window-y="-8"
     inkscape:window-maximized="1"
     inkscape:snap-grids="true"
     inkscape:snap-global="true">
    <inkscape:grid
       snapvisiblegridlinesonly="true"
       enabled="true"
       visible="true"
       empspacing="5"
       id="grid2816"
       type="xygrid" />
  </sodipodi:namedview>
  <defs
     id="defs4">
    <linearGradient
       inkscape:collect="always"
       id="linearGradient11482">
      <stop
         style="stop-color:#000000;stop-opacity:1;"
         offset="0"
         id="stop11484" />
      <stop
         style="stop-color:#000000;stop-opacity:0;"
         offset="1"
         id="stop11486" />
    </linearGradient>
    <marker
       style="overflow:visible;"
       id="Arrow2Lend"
       refX="0.0"
       refY="0.0"
       orient="auto"
       inkscape:stockid="Arrow2Lend">
      <path
         transform="scale(1.1) rotate(180) translate(1,0)"
         d="M 8.7185878,4.0337352 L -2.2072895,0.016013256 L 8.7185884,-4.0017078 C 6.9730900,-1.6296469 6.9831476,1.6157441 8.7185878,4.0337352 z "
         style="font-size:12.0;fill-rule:evenodd;stroke-width:0.62500000;stroke-linejoin:round;"
         id="path3907" />
    </marker>
    <marker
       style="overflow:visible;"
       id="Arrow1Lend"
       refX="0.0"
       refY="0.0"
       orient="auto"
       inkscape:stockid="Arrow1Lend">
      <path
         transform="scale(0.8) rotate(180) translate(12.5,0)"
         style="fill-rule:evenodd;stroke:#000000;stroke-width:1.0pt;marker-start:none;"
         d="M 0.0,0.0 L 5.0,-5.0 L -12.5,0.0 L 5.0,5.0 L 0.0,0.0 z "
         id="path3889" />
    </marker>
    <inkscape:perspective
       id="perspective10"
       inkscape:persp3d-origin="372.04724 : 350.78739 : 1"
       inkscape:vp_z="744.09448 : 526.18109 : 1"
       inkscape:vp_y="0 : 1000 : 0"
       inkscape:vp_x="0 : 526.18109 : 1"
       sodipodi:type="inkscape:persp3d" />
    <inkscape:perspective
       sodipodi:type="inkscape:persp3d"
       inkscape:vp_x="0 : 0.5 : 1"
       inkscape:vp_y="0 : 1000 : 0"
       inkscape:vp_z="1 : 0.5 : 1"
       inkscape:persp3d-origin="0.5 : 0.33333333 : 1"
       id="perspective2863" />
    <inkscape:perspective
       sodipodi:type="inkscape:persp3d"
       inkscape:vp_x="0 : 0.5 : 1"
       inkscape:vp_y="0 : 1000 : 0"
       inkscape:vp_z="1 : 0.5 : 1"
       inkscape:persp3d-origin="0.5 : 0.33333333 : 1"
       id="perspective2885" />
    <inkscape:perspective
       sodipodi:type="inkscape:persp3d"
       inkscape:vp_x="0 : 0.5 : 1"
       inkscape:vp_y="0 : 1000 : 0"
       inkscape:vp_z="1 : 0.5 : 1"
       inkscape:persp3d-origin="0.5 : 0.33333333 : 1"
       id="perspective2911" />
    <inkscape:perspective
       id="perspective11420"
       inkscape:persp3d-origin="0.5 : 0.33333333 : 1"
       inkscape:vp_z="1 : 0.5 : 1"
       inkscape:vp_y="0 : 1000 : 0"
       inkscape:vp_x="0 : 0.5 : 1"
       sodipodi:type="inkscape:persp3d" />
    <inkscape:perspective
       id="perspective11420-2"
       inkscape:persp3d-origin="0.5 : 0.33333333 : 1"
       inkscape:vp_z="1 : 0.5 : 1"
       inkscape:vp_y="0 : 1000 : 0"
       inkscape:vp_x="0 : 0.5 : 1"
       sodipodi:type="inkscape:persp3d" />
    <inkscape:perspective
       id="perspective11420-1"
       inkscape:persp3d-origin="0.5 : 0.33333333 : 1"
       inkscape:vp_z="1 : 0.5 : 1"
       inkscape:vp_y="0 : 1000 : 0"
       inkscape:vp_x="0 : 0.5 : 1"
       sodipodi:type="inkscape:persp3d" />
    <inkscape:perspective
       id="perspective11460"
       inkscape:persp3d-origin="0.5 : 0.33333333 : 1"
       inkscape:vp_z="1 : 0.5 : 1"
       inkscape:vp_y="0 : 1000 : 0"
       inkscape:vp_x="0 : 0.5 : 1"
       sodipodi:type="inkscape:persp3d" />
    <linearGradient
       inkscape:collect="always"
       xlink:href="#linearGradient11482"
       id="linearGradient11488"
       x1="0"
       y1="1052.3622"
       x2="450"
       y2="602.36218"
       gradientUnits="userSpaceOnUse" />
  </defs>
  <metadata
     id="metadata7">
    <rdf:RDF>
      <cc:Work
         rdf:about="">
        <dc:format>image/svg+xml</dc:format>
        <dc:type
           rdf:resource="http://purl.org/dc/dcmitype/StillImage" />
        <dc:title />
      </cc:Work>
    </rdf:RDF>
  </metadata>
  <g
     transform="translate(0,-552.36218)"
     id="layer1"
     inkscape:groupmode="layer"
     inkscape:label="Calque 1">
    <path
       id="path2824"
       d="m 100,662.36218 350,210"
       style="fill:none;stroke:#000000;stroke-width:2;stroke-linecap:butt;stroke-linejoin:miter;stroke-opacity:1;stroke-miterlimit:4;stroke-dasharray:none"
       sodipodi:nodetypes="cc" />
    <path
       sodipodi:nodetypes="cccccc"
       id="path2814"
       d="m 450,872.36218 -100,-270 -250,60 150,340.00002 150,0 50.02296,-129.80462"
       style="fill:url(#linearGradient11488);stroke:#000000;stroke-width:2;stroke-linecap:butt;stroke-linejoin:miter;stroke-opacity:1;stroke-miterlimit:4;stroke-dasharray:none;fill-opacity:1" />
    <path
       id="path2925"
       d="m 300,712.36218 -25,55"
       style="fill:none;stroke:#000000;stroke-width:2;stroke-linecap:butt;stroke-linejoin:miter;stroke-opacity:1;marker-end:url(#Arrow2Lend);stroke-miterlimit:4;stroke-dasharray:none" />
    <path
       sodipodi:nodetypes="cc"
       id="path2927"
       d="m 300,884.36218 -25,-117"
       style="fill:none;stroke:#000000;stroke-width:2;stroke-linecap:butt;stroke-linejoin:miter;stroke-opacity:1;marker-end:url(#Arrow2Lend);stroke-miterlimit:4;stroke-dasharray:none" />
    <path
       id="path6779"
       d="m 300,884.36218 0,-172"
       style="fill:none;stroke:#000000;stroke-width:2;stroke-linecap:butt;stroke-linejoin:miter;stroke-opacity:1;stroke-miterlimit:4;stroke-dasharray:none" />
    <path
       style="fill:none;stroke:#000000;stroke-width:1;stroke-linecap:butt;stroke-linejoin:miter;stroke-opacity:1;stroke-miterlimit:4;stroke-dasharray:6,6;stroke-dashoffset:10"
       d="M 145,0 100,110 0,205"
       id="path11408"
       transform="translate(0,552.36218)"
       sodipodi:nodetypes="ccc" />
    <path
       style="fill:none;stroke:#000000;stroke-width:1;stroke-linecap:butt;stroke-linejoin:miter;stroke-miterlimit:4;stroke-opacity:1;stroke-dasharray:6, 6;stroke-dashoffset:10"
       d="m 500,807.36218 -50,65 50,70"
       id="path11408-9"
       sodipodi:nodetypes="ccc" />
    <path
       style="fill:none;stroke:#000000;stroke-width:1;stroke-linecap:butt;stroke-linejoin:miter;stroke-miterlimit:4;stroke-opacity:1;stroke-dasharray:6, 6;stroke-dashoffset:10"
       d="m 300,1052.3622 -50,-50 L 0,932.36218"
       id="path11408-4"
       sodipodi:nodetypes="ccc" />
    <path
       style="fill:none;stroke:#000000;stroke-width:1;stroke-linecap:butt;stroke-linejoin:miter;stroke-miterlimit:4;stroke-opacity:1;stroke-dasharray:6, 6;stroke-dashoffset:10"
       d="m 435,552.36218 -85,50 -70,-50"
       id="path11408-8"
       sodipodi:nodetypes="ccc" />
    <path
       style="fill:none;stroke:#000000;stroke-width:1;stroke-linecap:butt;stroke-linejoin:miter;stroke-miterlimit:4;stroke-opacity:1;stroke-dasharray:6, 6;stroke-dashoffset:10"
       d="m 500,987.36218 -100,15.00002 -25,50"
       id="path11408-4-6"
       sodipodi:nodetypes="ccc" />
    <path
       sodipodi:end="7.0772789"
       sodipodi:start="0.80219183"
       transform="matrix(0.21497891,0,0,0.22174253,230.6693,837.68538)"
       d="m 338.14049,225.95595 a 22.5,21.5 0 1 1 0.13047,-0.12154 L 322.5,210.5 z"
       sodipodi:ry="21.5"
       sodipodi:rx="22.5"
       sodipodi:cy="210.5"
       sodipodi:cx="322.5"
       id="path2851-3-1"
       style="fill:#000000;fill-opacity:1;stroke:#000000;stroke-width:4.5999999;stroke-miterlimit:4;stroke-opacity:1;stroke-dasharray:none"
       sodipodi:type="arc"
       inkscape:transform-center-x="-44.96139"
       inkscape:transform-center-y="10.53498" />
    <path
       sodipodi:end="7.0772789"
       sodipodi:start="0.80219183"
       transform="matrix(0.21497891,0,0,0.22174253,230.6693,665.68538)"
       d="m 338.14049,225.95595 a 22.5,21.5 0 1 1 0.13047,-0.12154 L 322.5,210.5 z"
       sodipodi:ry="21.5"
       sodipodi:rx="22.5"
       sodipodi:cy="210.5"
       sodipodi:cx="322.5"
       id="path2851-3-1-7"
       style="fill:#000000;fill-opacity:1;stroke:#000000;stroke-width:4.5999999;stroke-miterlimit:4;stroke-opacity:1;stroke-dasharray:none"
       sodipodi:type="arc"
       inkscape:transform-center-x="-44.96139"
       inkscape:transform-center-y="10.53498" />
    <path
       sodipodi:end="7.0772789"
       sodipodi:start="0.80219183"
       transform="matrix(0.21497891,0,0,0.22174253,205.6693,720.68538)"
       d="m 338.14049,225.95595 a 22.5,21.5 0 1 1 0.13047,-0.12154 L 322.5,210.5 z"
       sodipodi:ry="21.5"
       sodipodi:rx="22.5"
       sodipodi:cy="210.5"
       sodipodi:cx="322.5"
       id="path2851-3-1-7-4"
       style="fill:#000000;fill-opacity:1;stroke:#000000;stroke-width:4.5999999;stroke-miterlimit:4;stroke-opacity:1;stroke-dasharray:none"
       sodipodi:type="arc"
       inkscape:transform-center-x="-44.96139"
       inkscape:transform-center-y="10.53498" />
  </g>
  <g
     style="font-style:normal;font-variant:normal;font-weight:normal;font-stretch:normal;letter-spacing:normal;word-spacing:normal;text-anchor:start;fill:none;stroke:#000000;stroke-linecap:butt;stroke-linejoin:miter;stroke-miterlimit:10.43299961;stroke-opacity:1;stroke-dasharray:none;stroke-dashoffset:0"
     id="content"
     transform="matrix(0.71428571,0,0,-0.71428571,-13.649998,384.82142)"
     xml:space="preserve"
     stroke-miterlimit="10.433"
     font-style="normal"
     font-variant="normal"
     font-weight="normal"
     font-stretch="normal"
     font-size-adjust="none"
     letter-spacing="normal"
     word-spacing="normal"><path
       style="fill:#000000;stroke-width:0"
       d="m 481.36,426.12 -0.01,0.02 -0.01,0.02 0,0.01 -0.01,0.02 -0.01,0.02 -0.01,0.02 -0.01,0.02 -0.01,0.03 0,0.02 -0.02,0.02 -0.01,0.03 -0.01,0.02 -0.02,0.05 -0.02,0.05 -0.02,0.05 -0.02,0.05 -0.01,0.03 -0.01,0.02 -0.01,0.03 0,0.02 -0.01,0.02 -0.01,0.02 0,0.02 -0.01,0.02 0,0.02 0,0.02 0,0.02 0,0.01 c 0,0.05 0.89,0.75 1.44,1.15 l 8.72,6.72 c 4.68,3.44 6.62,3.64 8.12,3.79 0.4,0.05 0.9,0.1 0.9,0.99 0,0.2 -0.16,0.55 -0.56,0.55 h -9.06 c -0.35,0 -0.95,0 -0.95,-0.99 0,-0.35 0.25,-0.5 0.6,-0.55 1.1,-0.1 1.55,-0.35 1.55,-1.05 0,-0.89 -1.5,-2.04 -1.8,-2.29 l -19.43,-14.94 3.99,15.99 c 0.45,1.79 0.55,2.29 4.18,2.29 1.25,0 1.7,0 1.7,0.99 0,0.45 -0.4,0.55 -0.7,0.55 h -12.8 c -0.35,0 -1,0 -1,-0.95 0,-0.59 0.45,-0.59 1.45,-0.59 0.65,0 1.54,-0.05 2.14,-0.1 0.79,-0.1 1.1,-0.25 1.1,-0.8 0,-0.2 -0.06,-0.35 -0.2,-0.94 l -6.68,-26.75 c -0.5,-1.95 -0.6,-2.35 -4.53,-2.35 -0.85,0 -1.4,0 -1.4,-0.94 0,-0.6 0.6,-0.6 0.75,-0.6 1.4,0 4.93,0.15 6.32,0.15 1.05,0 2.15,-0.05 3.2,-0.05 1.09,0 2.19,-0.1 3.23,-0.1 0.35,0 1,0 1,1 0,0.54 -0.45,0.54 -1.4,0.54 -1.84,0 -3.23,0 -3.23,0.9 0,0.35 0.29,1.45 0.44,2.19 0.7,2.59 1.35,5.23 2,7.82 l 7.42,5.78 5.78,-13.4 c 0.6,-1.34 0.6,-1.44 0.6,-1.74 0,-1.5 -2.15,-1.55 -2.59,-1.55 -0.55,0 -1.1,0 -1.1,-0.99 0,-0.55 0.6,-0.55 0.7,-0.55 h 10.95 c 0.25,0 0.9,0 0.9,1 0,0.54 -0.55,0.54 -0.99,0.54 -2.05,0.05 -2.69,0.5 -3.44,2.25 z"
       id="path6967" /></g>  <g
     id="g7805"
     transform="translate(-50,-30)">
    <path
       style="fill:none;stroke:#000000;stroke-width:2;stroke-linecap:butt;stroke-linejoin:miter;stroke-opacity:1;marker-end:url(#Arrow2Lend);stroke-miterlimit:4;stroke-dasharray:none"
       d="M 200,170 140,270"
       id="path7146"
       inkscape:connector-curvature="0" />
    <path
       style="fill:none;stroke:#000000;stroke-width:2;stroke-linecap:butt;stroke-linejoin:miter;stroke-opacity:1;stroke-miterlimit:4;stroke-dasharray:none"
       d="m 194,180 10,6 6,-10"
       id="path7334"
       inkscape:connector-curvature="0"
       sodipodi:nodetypes="ccc" />
    <g
       transform="translate(-133.04286,166.1)"
       id="g7363">
      <g
         style="font-style:normal;font-variant:normal;font-weight:normal;font-stretch:normal;letter-spacing:normal;word-spacing:normal;text-anchor:start;fill:none;stroke:#000000;stroke-linecap:butt;stroke-linejoin:miter;stroke-miterlimit:10.43299961;stroke-opacity:1;stroke-dasharray:none;stroke-dashoffset:0"
         id="g7365"
         transform="matrix(0.71428571,0,0,-0.71428571,-125,375)"
         xml:space="preserve"
         stroke-miterlimit="10.433"
         font-style="normal"
         font-variant="normal"
         font-weight="normal"
         font-stretch="normal"
         font-size-adjust="none"
         letter-spacing="normal"
         word-spacing="normal"><path
           style="fill:#000000;stroke-width:0"
           d="m 461.68,423.73 v -15.39 h -3.44 V 406 h 12.55 v 2.34 h -3.43 v 10.41 c 0,5.43 4.28,7.87 7.42,7.87 1.69,0 2.74,-1.04 2.74,-4.83 v -13.45 h -3.44 V 406 h 12.56 v 2.34 h -3.44 v 12.9 c 0,5.23 -2.69,7.17 -7.67,7.17 -4.78,0 -7.42,-2.83 -8.72,-5.37 v 5.37 l -8.57,-0.39 v -2.34 c 3.09,0 3.44,0 3.44,-1.95 z"
           id="path7367"
           inkscape:connector-curvature="0" /><path
           style="fill:#000000;stroke-width:0"
           d="m 494.81,406.95 0.1,0 0.1,0 0.12,0 0.13,0 0.13,0.01 0.14,0 0.15,0 0.15,0.01 0.17,0.01 0.17,0.01 0.17,0.01 0.18,0.01 0.18,0.01 0.19,0.01 0.39,0.04 0.39,0.04 0.41,0.05 0.41,0.06 0.4,0.07 0.4,0.08 0.2,0.04 0.19,0.05 0.2,0.05 0.18,0.06 0.19,0.05 0.18,0.06 c 2.57,0.91 3.06,2.58 3.06,3.63 0,1.92 -1.92,3.07 -4.32,3.07 v -0.98 c 1.53,0 2.82,-0.77 2.82,-2.09 0,-3.38 -5.89,-3.38 -7.39,-3.38 h -1.71 c 1.43,5.05 5.3,5.47 6.28,5.47 v 0.98 c -4.19,0 -9.83,-3.21 -9.83,-9.17 0,-3.53 2.19,-6.56 6.27,-6.56 5.89,0 8.65,3.45 8.65,3.94 0,0.21 -0.31,0.59 -0.59,0.59 -0.21,0 -0.28,-0.07 -0.56,-0.34 -2.72,-3.21 -6.8,-3.21 -7.43,-3.21 -2.09,0 -3.48,1.39 -3.48,4.22 0,0.49 0,1.18 0.41,3.1 z"
           id="path7369"
           inkscape:connector-curvature="0" /><path
           style="fill:#000000;stroke-width:0"
           d="m 513.35,399.56 0,-0.36 -0.01,-0.37 -0.03,-0.38 -0.05,-0.38 -0.02,-0.2 -0.04,-0.19 -0.04,-0.2 -0.04,-0.19 -0.05,-0.2 -0.05,-0.2 -0.07,-0.2 -0.06,-0.2 -0.08,-0.21 -0.08,-0.2 -0.09,-0.2 -0.1,-0.21 -0.11,-0.2 -0.11,-0.21 -0.13,-0.21 -0.13,-0.2 -0.14,-0.21 -0.15,-0.21 -0.16,-0.21 -0.18,-0.21 -0.18,-0.21 -0.19,-0.21 -0.21,-0.2 -0.21,-0.21 c -0.14,-0.14 -0.25,-0.25 -0.25,-0.42 0,-0.24 0.28,-0.49 0.49,-0.49 0.49,0 3.45,2.79 3.45,6.94 0,2.16 -0.83,3.8 -2.44,3.8 -1.15,0 -1.98,-0.91 -1.98,-1.99 0,-1.11 0.8,-2.02 2.02,-2.02 0.84,0 1.39,0.56 1.42,0.56 z"
           id="path7371"
           inkscape:connector-curvature="0" /><path
           style="fill:#000000;stroke-width:0"
           d="m 537.95,413.02 -0.02,0.02 -0.01,0.03 -0.01,0.02 -0.01,0.02 -0.02,0.03 -0.01,0.02 -0.01,0.02 -0.01,0.02 -0.01,0.01 -0.01,0.02 0,0.02 -0.01,0.01 -0.01,0.02 -0.01,0.01 -0.01,0.02 0,0.01 -0.01,0.01 -0.01,0.01 0,0.01 -0.01,0.01 0,0.01 -0.01,0.01 0,0.01 0,0.01 -0.01,0 0,0.01 0,0.01 0,0 0,0.01 -0.01,0 0,0 0,0.01 c 0,0.06 0.04,0.1 0.84,0.66 l 3.52,2.47 c 4.61,3.25 6.77,4.78 9.25,4.99 0.38,0.03 0.8,0.07 0.8,0.77 0,0.28 -0.24,0.45 -0.46,0.45 -0.73,0 -1.64,-0.1 -2.4,-0.1 -0.94,0 -3.28,0.14 -4.22,0.14 -0.21,0 -0.73,0 -0.73,-0.77 0,-0.04 0,-0.46 0.52,-0.49 0.42,-0.03 0.87,-0.1 0.87,-0.49 0,-0.62 -1.08,-1.39 -1.53,-1.71 l -14.54,-10.25 2.75,10.99 c 0.32,1.18 0.35,1.46 3.07,1.46 0.56,0 1.05,0 1.05,0.73 0,0.32 -0.22,0.53 -0.56,0.53 -1.01,0 -3.56,-0.14 -4.57,-0.14 -0.59,0 -1.81,0 -2.41,0.03 -0.7,0.04 -1.53,0.11 -2.2,0.11 -0.2,0 -0.73,0 -0.73,-0.77 0,-0.49 0.39,-0.49 1.16,-0.49 0.55,0 0.69,0 1.32,-0.07 0.7,-0.07 0.77,-0.14 0.77,-0.49 0,-0.07 0,-0.24 -0.14,-0.77 l -4.64,-18.51 c -0.28,-1.18 -0.35,-1.47 -3.07,-1.47 -0.63,0 -1.04,0 -1.04,-0.76 0,-0.04 0,-0.49 0.56,-0.49 1.01,0 3.51,0.14 4.53,0.14 0.59,0 1.81,0 2.4,-0.03 0.7,-0.04 1.57,-0.11 2.23,-0.11 0.21,0 0.74,0 0.74,0.77 0,0.48 -0.42,0.48 -1.12,0.48 -0.03,0 -0.7,0 -1.32,0.07 -0.81,0.07 -0.81,0.18 -0.81,0.53 0,0.28 0.35,1.57 1.64,6.69 l 5.79,4.08 5.05,-9.8 c 0.25,-0.45 0.25,-0.48 0.25,-0.66 0,-0.8 -0.97,-0.91 -1.6,-0.91 -0.42,0 -0.91,0 -0.91,-0.76 0,-0.04 0.04,-0.49 0.59,-0.49 h 7.88 c 0.46,0 0.7,0.24 0.7,0.73 0,0.52 -0.45,0.52 -0.8,0.52 -0.63,0 -1.71,0.04 -2.3,1.16 z"
           id="path7373"
           inkscape:connector-curvature="0" /></g>    </g>
  </g>
  <g
     transform="translate(145.27857,345.67857)"
     id="g7017">
    <g
       style="font-style:normal;font-variant:normal;font-weight:normal;font-stretch:normal;letter-spacing:normal;word-spacing:normal;text-anchor:start;fill:none;stroke:#000000;stroke-linecap:butt;stroke-linejoin:miter;stroke-miterlimit:10.43299961;stroke-opacity:1;stroke-dasharray:none;stroke-dashoffset:0"
       id="g7019"
       transform="matrix(0.71428571,0,0,-0.71428571,-125,375)"
       xml:space="preserve"
       stroke-miterlimit="10.433"
       font-style="normal"
       font-variant="normal"
       font-weight="normal"
       font-stretch="normal"
       font-size-adjust="none"
       letter-spacing="normal"
       word-spacing="normal"><path
         style="fill:#000000;stroke-width:0"
         d="m 481.36,426.12 -0.01,0.02 -0.01,0.02 0,0.01 -0.01,0.02 -0.01,0.02 -0.01,0.02 -0.01,0.02 -0.01,0.03 0,0.02 -0.02,0.02 -0.01,0.03 -0.01,0.02 -0.02,0.05 -0.02,0.05 -0.02,0.05 -0.02,0.05 -0.01,0.03 -0.01,0.02 -0.01,0.03 0,0.02 -0.01,0.02 -0.01,0.02 0,0.02 -0.01,0.02 0,0.02 0,0.02 0,0.02 0,0.01 c 0,0.05 0.89,0.75 1.44,1.15 l 8.72,6.72 c 4.68,3.44 6.62,3.64 8.12,3.79 0.4,0.05 0.9,0.1 0.9,0.99 0,0.2 -0.16,0.55 -0.56,0.55 h -9.06 c -0.35,0 -0.95,0 -0.95,-0.99 0,-0.35 0.25,-0.5 0.6,-0.55 1.1,-0.1 1.55,-0.35 1.55,-1.05 0,-0.89 -1.5,-2.04 -1.8,-2.29 l -19.43,-14.94 3.99,15.99 c 0.45,1.79 0.55,2.29 4.18,2.29 1.25,0 1.7,0 1.7,0.99 0,0.45 -0.4,0.55 -0.7,0.55 h -12.8 c -0.35,0 -1,0 -1,-0.95 0,-0.59 0.45,-0.59 1.45,-0.59 0.65,0 1.54,-0.05 2.14,-0.1 0.79,-0.1 1.1,-0.25 1.1,-0.8 0,-0.2 -0.06,-0.35 -0.2,-0.94 l -6.68,-26.75 c -0.5,-1.95 -0.6,-2.35 -4.53,-2.35 -0.85,0 -1.4,0 -1.4,-0.94 0,-0.6 0.6,-0.6 0.75,-0.6 1.4,0 4.93,0.15 6.32,0.15 1.05,0 2.15,-0.05 3.2,-0.05 1.09,0 2.19,-0.1 3.23,-0.1 0.35,0 1,0 1,1 0,0.54 -0.45,0.54 -1.4,0.54 -1.84,0 -3.23,0 -3.23,0.9 0,0.35 0.29,1.45 0.44,2.19 0.7,2.59 1.35,5.23 2,7.82 l 7.42,5.78 5.78,-13.4 c 0.6,-1.34 0.6,-1.44 0.6,-1.74 0,-1.5 -2.15,-1.55 -2.59,-1.55 -0.55,0 -1.1,0 -1.1,-0.99 0,-0.55 0.6,-0.55 0.7,-0.55 h 10.95 c 0.25,0 0.9,0 0.9,1 0,0.54 -0.55,0.54 -0.99,0.54 -2.05,0.05 -2.69,0.5 -3.44,2.25 z"
         id="path7021" /><path
         style="fill:#000000;stroke-width:0"
         d="m 505.81,406.95 0.1,0 0.1,0 0.12,0 0.13,0 0.13,0.01 0.14,0 0.15,0 0.15,0.01 0.17,0.01 0.17,0.01 0.17,0.01 0.18,0.01 0.18,0.01 0.19,0.01 0.39,0.04 0.39,0.04 0.41,0.05 0.41,0.06 0.4,0.07 0.4,0.08 0.2,0.04 0.19,0.05 0.2,0.05 0.18,0.06 0.19,0.05 0.18,0.06 c 2.57,0.91 3.06,2.58 3.06,3.63 0,1.92 -1.92,3.07 -4.32,3.07 v -0.98 c 1.53,0 2.82,-0.77 2.82,-2.09 0,-3.38 -5.89,-3.38 -7.39,-3.38 h -1.71 c 1.43,5.05 5.3,5.47 6.28,5.47 v 0.98 c -4.19,0 -9.83,-3.21 -9.83,-9.17 0,-3.53 2.19,-6.56 6.27,-6.56 5.89,0 8.65,3.45 8.65,3.94 0,0.21 -0.31,0.59 -0.59,0.59 -0.21,0 -0.28,-0.07 -0.56,-0.34 -2.72,-3.21 -6.8,-3.21 -7.43,-3.21 -2.09,0 -3.48,1.39 -3.48,4.22 0,0.49 0,1.18 0.41,3.1 z"
         id="path7023" /></g>  </g>
  <g
     id="g7081"
     transform="translate(193.32857,194.94286)">
    <g
       word-spacing="normal"
       letter-spacing="normal"
       font-size-adjust="none"
       font-stretch="normal"
       font-weight="normal"
       font-variant="normal"
       font-style="normal"
       stroke-miterlimit="10.433"
       xml:space="preserve"
       transform="matrix(0.71428571,0,0,-0.71428571,-125,375)"
       id="g7083"
       style="font-style:normal;font-variant:normal;font-weight:normal;font-stretch:normal;letter-spacing:normal;word-spacing:normal;text-anchor:start;fill:none;stroke:#000000;stroke-linecap:butt;stroke-linejoin:miter;stroke-miterlimit:10.43299961;stroke-opacity:1;stroke-dasharray:none;stroke-dashoffset:0"><path
         id="path7085"
         d="m 465.32,417.51 0.14,0 0.15,0 0.17,0 0.18,0 0.18,0.01 0.2,0 0.21,0.01 0.21,0.01 0.23,0.01 0.23,0.01 0.24,0.02 0.24,0.01 0.25,0.02 0.26,0.03 0.52,0.05 0.54,0.06 0.54,0.08 0.55,0.09 0.54,0.11 0.53,0.13 0.27,0.07 0.25,0.07 0.26,0.08 0.25,0.09 0.24,0.09 0.24,0.09 c 3.48,1.5 3.73,4.44 3.73,5.14 0,2.19 -1.89,4.23 -5.33,4.23 v -1.1 c 2.34,0 3.69,-1.44 3.69,-3.13 0,-5.19 -7.97,-5.19 -10.01,-5.19 h -2.05 c 1.95,7.58 7.08,8.32 8.37,8.32 v 1.1 c -5.53,0 -13.05,-4.84 -13.05,-13.55 0,-5.08 2.94,-9.02 7.82,-9.02 7.12,0 11.31,5.28 11.31,5.88 0,0.3 -0.3,0.65 -0.6,0.65 -0.25,0 -0.35,-0.1 -0.64,-0.5 -3.94,-4.93 -9.37,-4.93 -9.97,-4.93 -3.88,0 -4.33,4.18 -4.33,5.78 0,0.6 0.05,2.14 0.8,5.18 z"
         style="fill:#000000;stroke-width:0" /></g>  </g>
  <path
     sodipodi:nodetypes="cc"
     id="path7420"
     d="m 285,65 c 5,25 6.90381,72.00494 85,35"
     style="fill:none;stroke:#000000;stroke-width:1px;stroke-linecap:butt;stroke-linejoin:miter;stroke-opacity:1" />
  <path
     sodipodi:nodetypes="cc"
     id="path7424"
     d="m 330,450 c -4,-15 -16,-73 93,-60"
     style="fill:none;stroke:#000000;stroke-width:1px;stroke-linecap:butt;stroke-linejoin:miter;stroke-opacity:1" />
  <g
     id="g8050"
     transform="translate(79.542859,277.22143)">
    <g
       word-spacing="normal"
       letter-spacing="normal"
       font-size-adjust="none"
       font-stretch="normal"
       font-weight="normal"
       font-variant="normal"
       font-style="normal"
       stroke-miterlimit="10.433"
       xml:space="preserve"
       transform="matrix(0.71428571,0,0,-0.71428571,-125,375)"
       id="g8052"
       style="font-style:normal;font-variant:normal;font-weight:normal;font-stretch:normal;letter-spacing:normal;word-spacing:normal;text-anchor:start;fill:none;stroke:#000000;stroke-linecap:butt;stroke-linejoin:miter;stroke-miterlimit:10.43299961;stroke-opacity:1;stroke-dasharray:none;stroke-dashoffset:0"><path
         id="path8054"
         d="m 473.23,418.25 5.83,6.48 c 0.65,0.7 0.95,1.05 5.08,1.05 v 2.34 h -9.71 v -2.34 c 0.7,0 1.3,-0.1 1.89,-0.45 -0.2,-0.3 -0.2,-0.4 -0.39,-0.6 l -4.19,-4.68 -4.88,5.73 h 1.99 v 2.34 h -11.51 v -2.34 h 3.54 l 7.77,-9.17 -6.52,-7.32 c -0.85,-0.95 -2.64,-0.95 -5.03,-0.95 V 406 h 9.71 v 2.34 c -0.9,0 -1.85,0.25 -1.85,0.55 0,0.05 0,0.1 0.36,0.5 l 4.83,5.43 5.47,-6.48 h -1.94 V 406 h 11.46 v 2.34 h -3.53 z"
         style="fill:#000000;stroke-width:0" /><path
         id="path8056"
         d="m 505.95,413.02 -0.02,0.02 -0.01,0.03 -0.01,0.02 -0.01,0.02 -0.02,0.03 -0.01,0.02 -0.01,0.02 -0.01,0.02 -0.01,0.01 -0.01,0.02 0,0.02 -0.01,0.01 -0.01,0.02 -0.01,0.01 -0.01,0.02 0,0.01 -0.01,0.01 -0.01,0.01 0,0.01 -0.01,0.01 0,0.01 -0.01,0.01 0,0.01 0,0.01 -0.01,0 0,0.01 0,0.01 0,0 0,0.01 -0.01,0 0,0 0,0.01 c 0,0.06 0.04,0.1 0.84,0.66 l 3.52,2.47 c 4.61,3.25 6.77,4.78 9.25,4.99 0.38,0.03 0.8,0.07 0.8,0.77 0,0.28 -0.24,0.45 -0.46,0.45 -0.73,0 -1.64,-0.1 -2.4,-0.1 -0.94,0 -3.28,0.14 -4.22,0.14 -0.21,0 -0.73,0 -0.73,-0.77 0,-0.04 0,-0.46 0.52,-0.49 0.42,-0.03 0.87,-0.1 0.87,-0.49 0,-0.62 -1.08,-1.39 -1.53,-1.71 l -14.55,-10.25 2.76,10.99 c 0.31,1.18 0.35,1.46 3.07,1.46 0.56,0 1.05,0 1.05,0.73 0,0.32 -0.22,0.53 -0.56,0.53 -1.01,0 -3.56,-0.14 -4.57,-0.14 -0.59,0 -1.81,0 -2.41,0.03 -0.69,0.04 -1.53,0.11 -2.19,0.11 -0.21,0 -0.74,0 -0.74,-0.77 0,-0.49 0.39,-0.49 1.16,-0.49 0.55,0 0.69,0 1.32,-0.07 0.7,-0.07 0.77,-0.14 0.77,-0.49 0,-0.07 0,-0.24 -0.14,-0.77 l -4.64,-18.51 c -0.28,-1.18 -0.35,-1.47 -3.07,-1.47 -0.63,0 -1.04,0 -1.04,-0.76 0,-0.04 0,-0.49 0.55,-0.49 1.02,0 3.52,0.14 4.54,0.14 0.59,0 1.81,0 2.4,-0.03 0.7,-0.04 1.57,-0.11 2.23,-0.11 0.21,0 0.74,0 0.74,0.77 0,0.48 -0.42,0.48 -1.12,0.48 -0.04,0 -0.7,0 -1.32,0.07 -0.81,0.07 -0.81,0.18 -0.81,0.53 0,0.28 0.35,1.57 1.64,6.69 l 5.79,4.08 5.06,-9.8 c 0.24,-0.45 0.24,-0.48 0.24,-0.66 0,-0.8 -0.97,-0.91 -1.6,-0.91 -0.42,0 -0.91,0 -0.91,-0.76 0,-0.04 0.04,-0.49 0.59,-0.49 h 7.88 c 0.46,0 0.7,0.24 0.7,0.73 0,0.52 -0.45,0.52 -0.8,0.52 -0.63,0 -1.71,0.04 -2.3,1.16 z"
         style="fill:#000000;stroke-width:0" /><path
         id="path8058"
         d="m 526.1,399.61 0.24,0 0.25,0 0.26,0 0.27,0.01 0.27,0.02 0.29,0.01 0.28,0.02 0.29,0.03 0.29,0.03 0.29,0.03 0.29,0.04 0.29,0.05 0.29,0.05 0.28,0.07 0.28,0.06 0.27,0.08 0.26,0.09 0.26,0.09 0.24,0.1 0.24,0.12 0.22,0.12 0.21,0.13 0.19,0.15 0.18,0.15 0.17,0.17 0.14,0.18 0.07,0.1 0.06,0.09 0.05,0.1 0.05,0.11 0.05,0.11 0.04,0.11 0.03,0.11 0.03,0.12 0.02,0.12 0.02,0.12 0.01,0.13 0,0.14 c 0,1.27 -1.29,2.24 -3.59,2.24 l -0.02,-0.85 c 1.25,0 2.34,-0.5 2.34,-1.42 0,-2.29 -4.65,-2.29 -5.83,-2.29 h -1.44 c 1.12,3.46 4.19,3.71 4.93,3.71 l 0.02,0.85 c -3.38,0 -7.69,-2.27 -7.69,-6.4 0,-2.27 1.47,-4.88 5.25,-4.88 0.48,0 2.47,0 4.14,0.65 1.67,0.64 2.66,1.79 2.66,2.06 0,0.2 -0.32,0.58 -0.54,0.58 -0.13,0 -0.15,-0.03 -0.55,-0.43 -1.22,-1.37 -3.44,-2.02 -5.68,-2.02 -2.04,0 -3.02,1.27 -3.02,3.14 0,0.25 0,0.9 0.25,1.9 z"
         style="fill:#000000;stroke-width:0" /></g>  </g>
  <g
     transform="translate(113.47143,64.999998)"
     id="g8194">
    <g
       style="font-style:normal;font-variant:normal;font-weight:normal;font-stretch:normal;letter-spacing:normal;word-spacing:normal;text-anchor:start;fill:none;stroke:#000000;stroke-linecap:butt;stroke-linejoin:miter;stroke-miterlimit:10.43299961;stroke-opacity:1;stroke-dasharray:none;stroke-dashoffset:0"
       id="g8196"
       transform="matrix(0.71428571,0,0,-0.71428571,-125,375)"
       xml:space="preserve"
       stroke-miterlimit="10.433"
       font-style="normal"
       font-variant="normal"
       font-weight="normal"
       font-stretch="normal"
       font-size-adjust="none"
       letter-spacing="normal"
       word-spacing="normal"><path
         style="fill:#000000;stroke-width:0"
         d="m 473.23,418.25 5.83,6.48 c 0.65,0.7 0.95,1.05 5.08,1.05 v 2.34 h -9.71 v -2.34 c 0.7,0 1.3,-0.1 1.89,-0.45 -0.2,-0.3 -0.2,-0.4 -0.39,-0.6 l -4.19,-4.68 -4.88,5.73 h 1.99 v 2.34 h -11.51 v -2.34 h 3.54 l 7.77,-9.17 -6.52,-7.32 c -0.85,-0.95 -2.64,-0.95 -5.03,-0.95 V 406 h 9.71 v 2.34 c -0.9,0 -1.85,0.25 -1.85,0.55 0,0.05 0,0.1 0.36,0.5 l 4.83,5.43 5.47,-6.48 h -1.94 V 406 h 11.46 v 2.34 h -3.53 z"
         id="path8198" /><path
         style="fill:#000000;stroke-width:0"
         d="m 505.95,413.02 -0.02,0.02 -0.01,0.03 -0.01,0.02 -0.01,0.02 -0.02,0.03 -0.01,0.02 -0.01,0.02 -0.01,0.02 -0.01,0.01 -0.01,0.02 0,0.02 -0.01,0.01 -0.01,0.02 -0.01,0.01 -0.01,0.02 0,0.01 -0.01,0.01 -0.01,0.01 0,0.01 -0.01,0.01 0,0.01 -0.01,0.01 0,0.01 0,0.01 -0.01,0 0,0.01 0,0.01 0,0 0,0.01 -0.01,0 0,0 0,0.01 c 0,0.06 0.04,0.1 0.84,0.66 l 3.52,2.47 c 4.61,3.25 6.77,4.78 9.25,4.99 0.38,0.03 0.8,0.07 0.8,0.77 0,0.28 -0.24,0.45 -0.46,0.45 -0.73,0 -1.64,-0.1 -2.4,-0.1 -0.94,0 -3.28,0.14 -4.22,0.14 -0.21,0 -0.73,0 -0.73,-0.77 0,-0.04 0,-0.46 0.52,-0.49 0.42,-0.03 0.87,-0.1 0.87,-0.49 0,-0.62 -1.08,-1.39 -1.53,-1.71 l -14.55,-10.25 2.76,10.99 c 0.31,1.18 0.35,1.46 3.07,1.46 0.56,0 1.05,0 1.05,0.73 0,0.32 -0.22,0.53 -0.56,0.53 -1.01,0 -3.56,-0.14 -4.57,-0.14 -0.59,0 -1.81,0 -2.41,0.03 -0.69,0.04 -1.53,0.11 -2.19,0.11 -0.21,0 -0.74,0 -0.74,-0.77 0,-0.49 0.39,-0.49 1.16,-0.49 0.55,0 0.69,0 1.32,-0.07 0.7,-0.07 0.77,-0.14 0.77,-0.49 0,-0.07 0,-0.24 -0.14,-0.77 l -4.64,-18.51 c -0.28,-1.18 -0.35,-1.47 -3.07,-1.47 -0.63,0 -1.04,0 -1.04,-0.76 0,-0.04 0,-0.49 0.55,-0.49 1.02,0 3.52,0.14 4.54,0.14 0.59,0 1.81,0 2.4,-0.03 0.7,-0.04 1.57,-0.11 2.23,-0.11 0.21,0 0.74,0 0.74,0.77 0,0.48 -0.42,0.48 -1.12,0.48 -0.04,0 -0.7,0 -1.32,0.07 -0.81,0.07 -0.81,0.18 -0.81,0.53 0,0.28 0.35,1.57 1.64,6.69 l 5.79,4.08 5.06,-9.8 c 0.24,-0.45 0.24,-0.48 0.24,-0.66 0,-0.8 -0.97,-0.91 -1.6,-0.91 -0.42,0 -0.91,0 -0.91,-0.76 0,-0.04 0.04,-0.49 0.59,-0.49 h 7.88 c 0.46,0 0.7,0.24 0.7,0.73 0,0.52 -0.45,0.52 -0.8,0.52 -0.63,0 -1.71,0.04 -2.3,1.16 z"
         id="path8200" /></g>  </g>
  <g
     id="g8329"
     transform="translate(23.471431,151.67143)">
    <g
       word-spacing="normal"
       letter-spacing="normal"
       font-size-adjust="none"
       font-stretch="normal"
       font-weight="normal"
       font-variant="normal"
       font-style="normal"
       stroke-miterlimit="10.433"
       xml:space="preserve"
       transform="matrix(0.71428571,0,0,-0.71428571,-125,375)"
       id="g8331"
       style="font-style:normal;font-variant:normal;font-weight:normal;font-stretch:normal;letter-spacing:normal;word-spacing:normal;text-anchor:start;fill:none;stroke:#000000;stroke-linecap:butt;stroke-linejoin:miter;stroke-miterlimit:10.43299961;stroke-opacity:1;stroke-dasharray:none;stroke-dashoffset:0"><path
         id="path8333"
         d="m 473.23,418.25 5.83,6.48 c 0.65,0.7 0.95,1.05 5.08,1.05 v 2.34 h -9.71 v -2.34 c 0.7,0 1.3,-0.1 1.89,-0.45 -0.2,-0.3 -0.2,-0.4 -0.39,-0.6 l -4.19,-4.68 -4.88,5.73 h 1.99 v 2.34 h -11.51 v -2.34 h 3.54 l 7.77,-9.17 -6.52,-7.32 c -0.85,-0.95 -2.64,-0.95 -5.03,-0.95 V 406 h 9.71 v 2.34 c -0.9,0 -1.85,0.25 -1.85,0.55 0,0.05 0,0.1 0.36,0.5 l 4.83,5.43 5.47,-6.48 h -1.94 V 406 h 11.46 v 2.34 h -3.53 z"
         style="fill:#000000;stroke-width:0" /><path
         id="path8335"
         d="m 493.81,406.95 0.1,0 0.1,0 0.12,0 0.13,0 0.13,0.01 0.14,0 0.15,0 0.15,0.01 0.17,0.01 0.17,0.01 0.17,0.01 0.18,0.01 0.18,0.01 0.19,0.01 0.39,0.04 0.39,0.04 0.41,0.05 0.41,0.06 0.4,0.07 0.4,0.08 0.2,0.04 0.19,0.05 0.2,0.05 0.18,0.06 0.19,0.05 0.18,0.06 c 2.57,0.91 3.06,2.58 3.06,3.63 0,1.92 -1.92,3.07 -4.32,3.07 v -0.98 c 1.53,0 2.82,-0.77 2.82,-2.09 0,-3.38 -5.89,-3.38 -7.39,-3.38 h -1.71 c 1.43,5.05 5.3,5.47 6.28,5.47 v 0.98 c -4.19,0 -9.83,-3.21 -9.83,-9.17 0,-3.53 2.19,-6.56 6.27,-6.56 5.89,0 8.65,3.45 8.65,3.94 0,0.21 -0.31,0.59 -0.59,0.59 -0.21,0 -0.28,-0.07 -0.56,-0.34 -2.72,-3.21 -6.8,-3.21 -7.43,-3.21 -2.09,0 -3.48,1.39 -3.48,4.22 0,0.49 0,1.18 0.41,3.1 z"
         style="fill:#000000;stroke-width:0" /></g>  </g>
</svg>
