<?xml version="1.0" encoding="UTF-8" standalone="no"?>
<!-- Created with Inkscape (http://www.inkscape.org/) -->
<svg xmlns:dc="http://purl.org/dc/elements/1.1/" xmlns:cc="http://creativecommons.org/ns#" xmlns:rdf="http://www.w3.org/1999/02/22-rdf-syntax-ns#" xmlns:svg="http://www.w3.org/2000/svg" xmlns="http://www.w3.org/2000/svg" xmlns:sodipodi="http://sodipodi.sourceforge.net/DTD/sodipodi-0.dtd" xmlns:inkscape="http://www.inkscape.org/namespaces/inkscape" width="214.01984" height="113.37136" id="svg2862" sodipodi:version="0.32" inkscape:version="0.46" version="1.0" sodipodi:docname="Institut national des sciences appliquées de Toulouse.svg" inkscape:output_extension="org.inkscape.output.svg.inkscape">
  <defs id="defs2864">
    <clipPath clipPathUnits="userSpaceOnUse" id="clipPath35">
      <path d="M 418.61,252.492 L 590.036,252.492 L 590.036,161.706 L 418.61,161.706 L 418.61,252.492 z" id="path37"/>
    </clipPath>
    <clipPath clipPathUnits="userSpaceOnUse" id="clipPath71">
      <path d="M 418.61,252.492 L 590.036,252.492 L 590.036,161.706 L 418.61,161.706 L 418.61,252.492 z" id="path73"/>
    </clipPath>
    <clipPath clipPathUnits="userSpaceOnUse" id="clipPath95">
      <path d="M 418.61,252.492 L 590.036,252.492 L 590.036,161.706 L 418.61,161.706 L 418.61,252.492 z" id="path97"/>
    </clipPath>
    <clipPath clipPathUnits="userSpaceOnUse" id="clipPath143">
      <path d="M 418.61,252.492 L 590.036,252.492 L 590.036,161.706 L 418.61,161.706 L 418.61,252.492 z" id="path145"/>
    </clipPath>
    <inkscape:perspective sodipodi:type="inkscape:persp3d" inkscape:vp_x="0 : 526.18109 : 1" inkscape:vp_y="0 : 1000 : 0" inkscape:vp_z="744.09448 : 526.18109 : 1" inkscape:persp3d-origin="372.04724 : 350.78739 : 1" id="perspective2870"/>
  </defs>
  <sodipodi:namedview id="base" pagecolor="#ffffff" bordercolor="#666666" borderopacity="1.0" inkscape:pageopacity="0.0" inkscape:pageshadow="2" inkscape:zoom="4.3360467" inkscape:cx="107.00992" inkscape:cy="56.685679" inkscape:document-units="px" inkscape:current-layer="layer1" showgrid="false" inkscape:window-width="1024" inkscape:window-height="712" inkscape:window-x="-4" inkscape:window-y="-4"/>
  <metadata id="metadata2867">
    <rdf:RDF>
      <cc:Work rdf:about="">
        <dc:format>image/svg+xml</dc:format>
        <dc:type rdf:resource="http://purl.org/dc/dcmitype/StillImage"/>
      </cc:Work>
    </rdf:RDF>
  </metadata>
  <g inkscape:label="Calque 1" inkscape:groupmode="layer" id="layer1" transform="translate(-221.56151,-289.96221)">
    <g transform="matrix(1.25,0,0,-1.25,-301.70099,605.57721)" id="g31">
      <g id="g33" clip-path="url(#clipPath35)">
        <g id="g39" transform="translate(505.726,249.246)">
          <path d="M 0,0 C 1.65,-2.738 1.79,-6.528 1.194,-9.793 C -0.175,-14.426 -3.264,-18.919 -8.178,-20.393 C -10.67,-21.13 -13.373,-20.323 -15.339,-18.708 C -17.971,-16.041 -19.059,-12.215 -18.287,-8.178 C -17.374,-3.124 -13.829,2.422 -8.354,3.615 C -5.089,4.317 -1.509,2.843 0,0" style="fill:#3f464c;fill-opacity:1;fill-rule:nonzero;stroke:none" id="path41"/>
        </g>
      </g>
    </g>
    <g id="g43" transform="matrix(1.25,0,0,-1.25,290.00401,309.72722)">
      <path d="M 0,0 C 2.176,-4.001 0.281,-9.301 -2.246,-12.109 C -4.142,-14.005 -6.809,-15.549 -9.582,-14.391 C -11.478,-13.584 -12.425,-11.513 -12.706,-9.582 C -13.022,-5.195 -11.302,-1.228 -7.722,1.509 C -5.476,2.633 -4.072,3.159 -2.176,2.211 C -1.334,1.685 -0.456,0.983 0,0" style="fill:#3f464c;fill-opacity:1;fill-rule:nonzero;stroke:none" id="path45"/>
    </g>
    <g id="g47" transform="matrix(1.25,0,0,-1.25,268.32901,336.97346)">
      <path d="M 0,0 L -10.978,0.066 L -8.003,14.461 L 3.124,14.391 L 0,0" style="fill:#3f464c;fill-opacity:1;fill-rule:nonzero;stroke:none" id="path49"/>
    </g>
    <g id="g51" transform="matrix(1.25,0,0,-1.25,397.84901,326.35596)">
      <path d="M 0,0 L -1.615,-7.231 C -3.229,-5.581 -5.055,-4.177 -7.336,-4.282 C -8.214,-4.387 -9.056,-4.984 -9.512,-5.827 C -10.32,-7.827 -8.319,-9.301 -7.231,-10.53 C -4.704,-13.127 -1.861,-16.251 -1.755,-20.288 L -1.685,-20.288 C -2.036,-20.849 -1.72,-21.973 -1.93,-22.745 C -2.914,-27.834 -8.073,-31.169 -12.882,-32.011 C -18.463,-32.924 -23.798,-31.555 -27.87,-28.291 C -27.87,-28.291 -26.466,-20.323 -25.693,-17.69 C -24.184,-20.112 -21.903,-22.569 -18.709,-23.236 C -16.708,-23.622 -14.602,-22.85 -13.303,-21.306 C -12.426,-20.253 -12.461,-18.287 -12.987,-17.024 C -16.146,-12.776 -22.499,-8.108 -19.2,-1.86 C -17.691,1.439 -14.075,3.264 -10.6,3.615 C -6.669,3.686 -3.124,2.211 0,0" style="fill:#3555ae;fill-opacity:1;fill-rule:nonzero;stroke:none" id="path53"/>
    </g>
    <g id="g55" transform="matrix(1.25,0,0,-1.25,323.39276,322.75846)">
      <path d="M 0,0 C -1.509,-7.301 -6.353,-29.94 -7.161,-33.871 L -7.406,-34.117 L -18.849,-34.117 C -17.901,-28.466 -11.724,-0.772 -11.688,0 C -8.108,0 -3.791,0 0,0" style="fill:#3555ae;fill-opacity:1;fill-rule:nonzero;stroke:none" id="path57"/>
    </g>
    <g id="g59" transform="matrix(1.25,0,0,-1.25,251.27276,327.44471)">
      <path d="M 0,0 L -2.703,-12.776 L -13.136,-12.783 L -10.355,-0.07 L 0,0" style="fill:#3f464c;fill-opacity:1;fill-rule:nonzero;stroke:none" id="path61"/>
    </g>
    <g id="g63" transform="matrix(1.25,0,0,-1.25,292.12776,350.77471)">
      <path d="M 0,0 L -14.335,-0.016 L -10.966,16.341 L 2.864,16.341 L 0,0" style="fill:#3f464c;fill-opacity:1;fill-rule:nonzero;stroke:none" id="path65"/>
    </g>
    <g transform="matrix(1.25,0,0,-1.25,-301.70099,605.57721)" id="g67">
      <g id="g69" clip-path="url(#clipPath71)">
        <g id="g75" transform="translate(588.772,215.37399)">
          <path d="M 0,0 C 3.124,-7.862 -1.614,-15.444 -2.422,-23.166 L -11.618,-23.166 C -11.197,-21.06 -10.53,-16.673 -10.53,-16.673 L -19.27,-16.673 C -19.866,-17.936 -20.779,-23.166 -20.779,-23.166 L -30.747,-23.166 C -28.431,-11.829 -25.904,-0.597 -23.482,10.881 C -13.865,11.548 -4.177,9.056 0,0 z M -15.303,1.86 L -17.585,-8.424 L -8.74,-8.424 C -8.213,-6.774 -8.318,-4.879 -8.669,-3.194 C -9.687,-0.421 -12.46,1.545 -15.303,1.86" style="fill:#3555ae;fill-opacity:1;fill-rule:nonzero;stroke:none" id="path77"/>
        </g>
      </g>
    </g>
    <g id="g79" transform="matrix(1.25,0,0,-1.25,269.29402,346.88971)">
      <path d="M 0,0 C 2.176,-3.931 0.316,-8.564 -2.106,-11.969 C -5.195,-15.584 -9.021,-18.182 -13.654,-17.62 C -18.568,-16.076 -18.743,-10.46 -17.866,-8.178 C -15.869,-2.987 -12.004,1.755 -6.072,2.773 C -3.615,2.984 -1.264,2.071 0,0" style="fill:#3f464c;fill-opacity:1;fill-rule:nonzero;stroke:none" id="path81"/>
    </g>
    <g id="g83" transform="matrix(1.25,0,0,-1.25,294.43526,376.37345)">
      <path d="M 0,0 L -11.864,0 L -8.003,18.111 C -8.003,18.111 1.613,18.182 3.72,18.111 L 0,0" style="fill:#3f464c;fill-opacity:1;fill-rule:nonzero;stroke:none" id="path85"/>
    </g>
    <g id="g87" transform="matrix(1.25,0,0,-1.25,268.4165,374.17971)">
      <path d="M 0,0 C 1.79,-2.878 0.772,-6.599 -0.983,-9.161 C -3.335,-12.144 -7.09,-14.321 -10.951,-13.127 C -13.268,-12.285 -14.707,-10.038 -14.882,-7.581 C -14.882,-6.564 -14.637,-5.651 -14.461,-4.703 L -14.391,-4.773 C -13.408,-0.772 -9.512,2.212 -5.37,2.703 C -3.194,2.703 -1.158,1.685 0,0" style="fill:#3f464c;fill-opacity:1;fill-rule:nonzero;stroke:none" id="path89"/>
    </g>
    <g transform="matrix(1.25,0,0,-1.25,-301.70099,605.57721)" id="g91">
      <g id="g93" clip-path="url(#clipPath95)">
        <g id="g99" transform="translate(441.879,171.815)">
          <path d="M 0,0 C 2.514,-4.918 -2.738,-9.021 -5.405,-9.863 C -7.055,-10.249 -8.88,-9.898 -10.109,-9.091 C -11.443,-7.863 -11.969,-6.108 -11.478,-4.212 C -10.67,-1.123 -7.687,1.334 -4.633,1.86 C -2.773,2.036 -1.053,1.474 0,0" style="fill:#3f464c;fill-opacity:1;fill-rule:nonzero;stroke:none" id="path101"/>
        </g>
      </g>
    </g>
    <g id="g103" transform="matrix(1.25,0,0,-1.25,367.09151,322.75846)">
      <path d="M 0,0 C -2.281,-11.232 -5.019,-22.815 -7.266,-34.117 L -16.062,-34.117 C -15.851,-32.046 -15.455,-29.238 -15.876,-26.816 C -16.613,-21.551 -19.761,-16.181 -24.78,-13.829 C -26.22,-20.568 -27.624,-27.308 -29.063,-34.047 C -32.502,-33.977 -35.24,-34.257 -38.856,-34.047 C -38.224,-30.396 -33.356,-7.617 -31.776,-0.105 C -14.759,-1.246 -13.531,-12.829 -12.566,-13.899 C -11.407,-9.301 -10.495,-4.598 -9.442,0.07 L 0,0" style="fill:#3555ae;fill-opacity:1;fill-rule:nonzero;stroke:none" id="path105"/>
    </g>
    <g id="g107" transform="matrix(1.25,0,0,-1.25,345.50526,374.44221)">
      <path d="M 0,0 L -2.049,0 L -3.204,-5.423 L -4.626,-5.423 L -3.472,0 L -5.552,0 L -5.293,1.214 L 0.259,1.214 L 0,0" style="fill:#3f464c;fill-opacity:1;fill-rule:nonzero;stroke:none" id="path109"/>
    </g>
    <g id="g111" transform="matrix(1.25,0,0,-1.25,357.70525,376.29596)">
      <path d="M 0,0 C 0,-1.065 -0.368,-2.139 -0.985,-2.895 C -1.651,-3.711 -2.527,-4.099 -3.681,-4.099 C -5.492,-4.099 -6.577,-2.995 -6.577,-1.134 C -6.577,1.204 -5.044,2.855 -2.885,2.855 C -1.104,2.855 0,1.761 0,0 z M -5.154,-1.174 C -5.154,-2.268 -4.577,-2.925 -3.612,-2.925 C -2.398,-2.925 -1.473,-1.672 -1.473,-0.03 C -1.473,1.034 -2.039,1.671 -2.995,1.671 C -4.248,1.671 -5.154,0.478 -5.154,-1.174" style="fill:#3f464c;fill-opacity:1;fill-rule:nonzero;stroke:none" id="path113"/>
    </g>
    <g id="g115" transform="matrix(1.25,0,0,-1.25,369.63276,377.76345)">
      <path d="M 0,0 C -0.239,-1.134 -0.428,-1.602 -0.816,-2.039 C -1.333,-2.627 -2.099,-2.915 -3.124,-2.915 C -4.776,-2.915 -5.771,-2.189 -5.771,-0.985 C -5.771,-0.646 -5.741,-0.448 -5.631,0.09 L -4.826,3.871 L -3.403,3.871 L -4.179,0.199 C -4.298,-0.348 -4.318,-0.487 -4.318,-0.726 C -4.318,-1.333 -3.841,-1.721 -3.095,-1.721 C -2.487,-1.721 -2.04,-1.512 -1.801,-1.114 C -1.672,-0.895 -1.622,-0.756 -1.502,-0.298 C -1.482,-0.199 -1.463,-0.129 -1.423,0.05 C -1.373,0.249 -1.353,0.338 -1.343,0.388 L -0.607,3.871 L 0.826,3.871 L 0,0" style="fill:#3f464c;fill-opacity:1;fill-rule:nonzero;stroke:none" id="path117"/>
    </g>
    <g id="g119" transform="matrix(1.25,0,0,-1.25,376.41152,379.70345)">
      <path d="M 0,0 L 3.274,0 L 3.015,-1.214 L -1.681,-1.214 L -0.269,5.423 L 1.154,5.423 L 0,0" style="fill:#3f464c;fill-opacity:1;fill-rule:nonzero;stroke:none" id="path121"/>
    </g>
    <g id="g123" transform="matrix(1.25,0,0,-1.25,393.93526,376.29596)">
      <path d="M 0,0 C 0,-1.065 -0.368,-2.139 -0.985,-2.895 C -1.652,-3.711 -2.527,-4.099 -3.681,-4.099 C -5.492,-4.099 -6.577,-2.995 -6.577,-1.134 C -6.577,1.204 -5.045,2.855 -2.885,2.855 C -1.104,2.855 0,1.761 0,0 z M -5.154,-1.174 C -5.154,-2.268 -4.577,-2.925 -3.612,-2.925 C -2.398,-2.925 -1.473,-1.672 -1.473,-0.03 C -1.473,1.034 -2.04,1.671 -2.995,1.671 C -4.249,1.671 -5.154,0.478 -5.154,-1.174" style="fill:#3f464c;fill-opacity:1;fill-rule:nonzero;stroke:none" id="path125"/>
    </g>
    <g id="g127" transform="matrix(1.25,0,0,-1.25,405.86151,377.76345)">
      <path d="M 0,0 C -0.239,-1.134 -0.428,-1.602 -0.816,-2.039 C -1.333,-2.627 -2.099,-2.915 -3.124,-2.915 C -4.776,-2.915 -5.771,-2.189 -5.771,-0.985 C -5.771,-0.646 -5.741,-0.448 -5.632,0.09 L -4.826,3.871 L -3.403,3.871 L -4.179,0.199 C -4.298,-0.348 -4.318,-0.487 -4.318,-0.726 C -4.318,-1.333 -3.841,-1.721 -3.095,-1.721 C -2.488,-1.721 -2.04,-1.512 -1.801,-1.114 C -1.672,-0.895 -1.622,-0.756 -1.503,-0.298 C -1.482,-0.199 -1.463,-0.129 -1.423,0.05 C -1.373,0.249 -1.353,0.338 -1.343,0.388 L -0.607,3.871 L 0.826,3.871 L 0,0" style="fill:#3f464c;fill-opacity:1;fill-rule:nonzero;stroke:none" id="path129"/>
    </g>
    <g id="g131" transform="matrix(1.25,0,0,-1.25,416.11025,375.39971)">
      <path d="M 0,0 C -0.06,0.746 -0.368,1.015 -1.184,1.015 C -1.89,1.015 -2.338,0.696 -2.338,0.189 C -2.338,-0.219 -2.099,-0.398 -1.204,-0.627 C -0.239,-0.886 0.139,-1.035 0.438,-1.284 C 0.816,-1.582 1.025,-2.06 1.025,-2.607 C 1.025,-3.94 -0.08,-4.786 -1.791,-4.786 C -3.582,-4.786 -4.457,-4.02 -4.457,-2.448 L -3.035,-2.448 C -3.035,-3.303 -2.617,-3.681 -1.661,-3.681 C -0.875,-3.681 -0.378,-3.323 -0.378,-2.756 C -0.378,-2.319 -0.617,-2.119 -1.393,-1.901 C -2.497,-1.592 -2.816,-1.463 -3.144,-1.204 C -3.522,-0.906 -3.731,-0.448 -3.731,0.06 C -3.731,1.313 -2.706,2.109 -1.094,2.109 C 0.488,2.109 1.373,1.383 1.373,0.079 C 1.373,0.079 1.373,0.04 1.373,0 L 0,0" style="fill:#3f464c;fill-opacity:1;fill-rule:nonzero;stroke:none" id="path133"/>
    </g>
    <g id="g135" transform="matrix(1.25,0,0,-1.25,429.76526,374.44221)">
      <path d="M 0,0 L -3.621,0 L -3.93,-1.433 L -0.557,-1.433 L -0.806,-2.567 L -4.169,-2.567 L -4.517,-4.209 L -0.826,-4.209 L -1.084,-5.423 L -6.198,-5.423 L -4.786,1.214 L 0.259,1.214 L 0,0" style="fill:#3f464c;fill-opacity:1;fill-rule:nonzero;stroke:none" id="path137"/>
    </g>
    <g transform="matrix(1.25,0,0,-1.25,-301.70099,605.57721)" id="g139">
      <g id="g141" clip-path="url(#clipPath143)">
        <g id="g147" transform="translate(419.49899,222.508)">
          <path d="M 0,0 C 1.999,-1.678 5.41,-0.905 7.618,1.726 C 9.825,4.357 9.994,7.85 7.994,9.527 C 5.995,11.205 2.584,10.432 0.377,7.802 C -1.831,5.171 -1.999,1.678 0,0" style="fill:#3f464c;fill-opacity:1;fill-rule:nonzero;stroke:none" id="path149"/>
        </g>
      </g>
    </g>
  </g>
</svg>